<?xml version="1.0" encoding="utf-8"?>
<svg xmlns="http://www.w3.org/2000/svg" xmlns:xlink="http://www.w3.org/1999/xlink">
    <symbol id="content-variables-manager" viewBox="0 0 32 32" xmlns="http://www.w3.org/2000/svg">
        <path d="M30.667 20.333h-2.243l.577-1.967a1.333 1.333 0 0 0-2.56-.743l-.003.009-.77 2.7h-2.847l.563-1.967a1.333 1.333 0 0 0-2.56-.743l-.003.009-.773 2.7h-2.713a1.333 1.333 0 0 0 0 2.666h1.947l-.763 2.667h-3.183a1.333 1.333 0 0 0 0 2.666h2.42l-.567 1.967a1.334 1.334 0 0 0 .907 1.644l.009.002c.109.034.234.053.364.053h.003a1.336 1.336 0 0 0 1.278-.957l.002-.009.777-2.7h2.827l-.563 1.967a1.334 1.334 0 0 0 .907 1.644l.009.002c.109.034.234.053.364.053h.003a1.336 1.336 0 0 0 1.278-.957l.002-.009.777-2.7h2.537a1.333 1.333 0 0 0 0-2.666h-1.773l.773-2.667h3a1.333 1.333 0 0 0 0-2.666zm-6.547 5.334h-2.83L22.053 23h2.83zm3.213-24.334V14a1.333 1.333 0 0 1-2.666 0V2.667H6.533A2.533 2.533 0 0 0 4 5.169v18.195a6.325 6.325 0 0 1 2.906-.697H11.333a1.333 1.333 0 0 1 0 2.666H6.94c-1.567 0-2.94.933-2.94 2s1.373 2 2.94 2h4.393a1.333 1.333 0 0 1 0 2.666H6.94c-3.09 0-5.607-2.09-5.607-4.667v-.002c0-.166.011-.33.032-.49l-.002.019a1.228 1.228 0 0 1-.03-.189V5.173A5.203 5.203 0 0 1 6.536 0h19.463c.736 0 1.333.597 1.333 1.333z"/>
    </symbol>
    <symbol id="sort-order" viewBox="0 0 32 32" xmlns="http://www.w3.org/2000/svg">
        <path d="M21.3 29.333a1.33 1.33 0 0 1-1.022-.481l-.002-.002-6.633-8a1.333 1.333 0 0 1 2.052-1.701l.001.002 5.61 6.767 5.667-6.773a1.335 1.335 0 1 1 2.045 1.716l.002-.002-6.687 8a1.332 1.332 0 0 1-1.022.477h-.012.001zM15.693 12.85l5.61-6.767 5.667 6.773a1.335 1.335 0 1 0 2.045-1.716l.002.002-6.683-8a1.332 1.332 0 0 0-1.022-.477H21.3h.001a1.33 1.33 0 0 0-1.022.481l-.002.002-6.633 8a1.333 1.333 0 0 0 2.051 1.702l.002-.003zm-8.11 10.883a1.702 1.702 0 0 0-.518-.576l-.005-.004a2.505 2.505 0 0 0-.799-.356l-.018-.004a4.016 4.016 0 0 0-1.017-.127h-.042.002-.02c-.263 0-.522.022-.773.064l.027-.004a4.377 4.377 0 0 0-.698.169l.031-.009a3.934 3.934 0 0 0-1.098.555l.012-.008.84 1.097c.087-.06.18-.123.287-.183a2.36 2.36 0 0 1 .334-.164l.016-.006c.114-.047.252-.092.394-.126l.019-.004c.136-.03.293-.047.454-.047h.041-.002a1.215 1.215 0 0 1 .826.236l-.003-.002a.827.827 0 0 1 .262.605l-.002.064V24.9v.007c0 .153-.029.3-.083.434l.003-.008a.89.89 0 0 1-.274.332l-.002.002c-.149.107-.324.19-.513.238l-.011.002a3.279 3.279 0 0 1-.758.087l-.069-.001h.003-.547v1.157h.557l.08-.001c.285 0 .564.027.835.078l-.028-.004c.219.04.415.113.592.215l-.009-.005a.838.838 0 0 1 .331.329l.002.004a.92.92 0 0 1 .1.421v.014-.001a1.412 1.412 0 0 1-.09.476l.003-.01a.836.836 0 0 1-.255.369l-.001.001c-.136.11-.3.193-.478.238l-.009.002a2.899 2.899 0 0 1-.712.087l-.061-.001h.003c-.174 0-.345-.012-.513-.036l.02.002a4.272 4.272 0 0 1-.556-.103l.03.006c-.18-.047-.36-.1-.54-.163a3.862 3.862 0 0 1-.538-.234l.021.01v1.4c.299.138.648.253 1.012.328l.031.005a6.27 6.27 0 0 0 1.152.103h.043-.002l.08.001c.46 0 .906-.065 1.327-.186l-.034.008c.371-.108.694-.28.972-.504l-.005.004c.245-.2.438-.452.565-.741l.005-.013c.118-.272.187-.589.187-.923v-.039.002a1.586 1.586 0 0 0-.489-1.226l-.001-.001a2.513 2.513 0 0 0-1.432-.573h-.008v-.03c.253-.06.475-.146.681-.257l-.015.007c.207-.109.384-.243.536-.402l.001-.001c.15-.158.272-.345.356-.552l.004-.012c.084-.209.133-.452.133-.706v-.022-.033c0-.275-.068-.534-.188-.761l.004.009zM8 18.597H4.773v-.073l.953-.957c.28-.277.547-.55.793-.817.234-.245.453-.509.652-.788l.015-.022c.171-.239.322-.513.438-.804l.009-.026c.101-.261.16-.562.16-.878v-.01-.037c0-.319-.063-.623-.176-.901l.006.016a1.945 1.945 0 0 0-.488-.699l-.002-.001a2.232 2.232 0 0 0-.784-.439l-.016-.004A3.094 3.094 0 0 0 5.352 12h-.02.001-.047c-.29 0-.571.034-.841.099l.025-.005a3.388 3.388 0 0 0-.723.262l.019-.009a3.524 3.524 0 0 0-.592.363l.009-.006c-.177.137-.333.277-.51.423l.91 1.073c.242-.223.513-.421.805-.586l.021-.011a1.71 1.71 0 0 1 .823-.21l.049-.001c.229 0 .438.084.599.222l-.001-.001a.788.788 0 0 1 .243.623v-.002.003c0 .238-.042.466-.118.678l.004-.014a2.824 2.824 0 0 1-.339.625l.006-.009a6.097 6.097 0 0 1-.498.625l.005-.005c-.19.213-.403.443-.64.697l-1.863 2v1.167h5.32zM7 1.333H5.6L3 3.386l.827 1.017.927-.737c.057-.043.113-.093.173-.147l.17-.16.15-.147.087-.1v.397c0 .144 0 .293-.017.437s0 .283 0 .417v4.97H7z"/>
    </symbol>
    <symbol id="edit-bulk" viewBox="0 0 32 32" xmlns="http://www.w3.org/2000/svg">
        <path d="M28.5 2.06v1.273c0 .736-.597 1.333-1.333 1.333H24.5a1.333 1.333 0 0 1-1.333-1.333v-2C23.167.597 23.764 0 24.5 0h1.833l.062-.001c1.132 0 2.056.893 2.105 2.013v.004zm-3.467 22.773l3-5.187c.084-.145.133-.318.133-.503V7.403a1 1 0 0 0-2 0v11.473l-2.867 4.957a1 1 0 0 0 1.731 1.005l.003-.005zm-.2-7.6V6.31a.667.667 0 1 0-1.334 0v10.923a.667.667 0 1 0 1.334 0zm-16-15.9v2c0 .736-.597 1.333-1.333 1.333H4.833A1.333 1.333 0 0 1 3.5 3.333V2c.056-1.116.975-2 2.101-2h.038-.002H7.5c.736 0 1.333.597 1.333 1.333zm-.5 23.867a1.002 1.002 0 0 0 .364-1.371l.003.005-2.867-4.957V7.404a1 1 0 0 0-2 0v11.74c0 .185.05.359.136.508l-.003-.005 3 5.187a1.002 1.002 0 0 0 1.371.364l-.005.003zm.167-7.967V6.31a.667.667 0 1 0-1.334 0v10.923a.667.667 0 1 0 1.334 0zM21.5 4.9V7c0 .736-.597 1.333-1.333 1.333h-8A1.333 1.333 0 0 1 10.834 7V4.837a2.52 2.52 0 0 1 2.52-2.503H18.938l.068-.001a2.497 2.497 0 0 1 2.497 2.497l-.001.071v-.003zm-4.24 26.527l4-5.76a1.32 1.32 0 0 0 .24-.76V11.88a1.333 1.333 0 0 0-2.666 0v12.61l-2.667 3.843-2.667-3.84V11.88a1.333 1.333 0 0 0-2.666 0v13.03c0 .283.089.545.24.761l-.003-.004 4 5.757a1.332 1.332 0 0 0 2.187.008l.003-.004zm.24-8.64v-12.12a1.333 1.333 0 0 0-2.666 0v12.12a1.333 1.333 0 0 0 2.666 0z"/>
    </symbol>
    <symbol id="link-content" viewBox="0 0 32 32" xmlns="http://www.w3.org/2000/svg">
        <path d="M29.307 15.56l-1.2-1.2c-.636-.635-1.514-1.028-2.483-1.028s-1.848.393-2.483 1.028l-3.177 3.18a3.489 3.489 0 0 0-.96 3.148L19 20.666a3.482 3.482 0 0 0-3.13.951L12.69 24.8c-.633.636-1.025 1.513-1.025 2.482s.392 1.846 1.025 2.482l1.2 1.2c.636.634 1.514 1.027 2.483 1.027s1.847-.392 2.483-1.027l3.177-3.18a3.48 3.48 0 0 0 .963-3.138l.004.022c.2.04.431.063.666.063h.004c.964 0 1.837-.39 2.47-1.02l3.18-3.183a3.508 3.508 0 0 0 1.02-2.477c0-.973-.395-1.853-1.033-2.49zm-9.154 10.333l-3.18 3.18a.861.861 0 0 1-1.194-.001l-1.203-1.2a.844.844 0 0 1 0-1.194l3.18-3.18a.829.829 0 0 1 .895-.165l-.005-.002c.062.023.136.042.212.056l.008.001-2.2 2.207a1 1 0 0 0 .707 1.707.997.997 0 0 0 .696-.303l2.207-2.203c.014.078.034.146.059.211l-.003-.008a.833.833 0 0 1-.18.907zm7.267-7.266l-3.18 3.18a.825.825 0 0 1-.892.181l.006.002a1.306 1.306 0 0 0-.212-.056l-.008-.001 2.2-2.197a1 1 0 0 0-1.405-1.402l.002-.002-2.207 2.203a1.137 1.137 0 0 0-.059-.211l.003.008a.831.831 0 0 1 .18-.9l3.18-3.18a.865.865 0 0 1 1.194 0l1.203 1.2a.844.844 0 0 1-.003 1.187zM9 29.333H3A1.333 1.333 0 0 1 1.667 28V1.333C1.667.597 2.264 0 3 0h18.667C22.403 0 23 .597 23 1.333v9.333a1.333 1.333 0 0 1-2.666 0v-8h-16v24h4.667a1.333 1.333 0 0 1 0 2.666z"/>
    </symbol>
</svg>