<?xml version="1.0" encoding="utf-8"?>
<svg xmlns="http://www.w3.org/2000/svg" xmlns:xlink="http://www.w3.org/1999/xlink">
    <symbol id="content-variables-manager" viewBox="0 0 32 32" xmlns="http://www.w3.org/2000/svg">
        <path d="M30.667 20.333h-2.243l.577-1.967a1.333 1.333 0 0 0-2.56-.743l-.003.009-.77 2.7h-2.847l.563-1.967a1.333 1.333 0 0 0-2.56-.743l-.003.009-.773 2.7h-2.713a1.333 1.333 0 0 0 0 2.666h1.947l-.763 2.667h-3.183a1.333 1.333 0 0 0 0 2.666h2.42l-.567 1.967a1.334 1.334 0 0 0 .907 1.644l.009.002c.109.034.234.053.364.053h.003a1.336 1.336 0 0 0 1.278-.957l.002-.009.777-2.7h2.827l-.563 1.967a1.334 1.334 0 0 0 .907 1.644l.009.002c.109.034.234.053.364.053h.003a1.336 1.336 0 0 0 1.278-.957l.002-.009.777-2.7h2.537a1.333 1.333 0 0 0 0-2.666h-1.773l.773-2.667h3a1.333 1.333 0 0 0 0-2.666zm-6.547 5.334h-2.83L22.053 23h2.83zm3.213-24.334V14a1.333 1.333 0 0 1-2.666 0V2.667H6.533A2.533 2.533 0 0 0 4 5.169v18.195a6.325 6.325 0 0 1 2.906-.697H11.333a1.333 1.333 0 0 1 0 2.666H6.94c-1.567 0-2.94.933-2.94 2s1.373 2 2.94 2h4.393a1.333 1.333 0 0 1 0 2.666H6.94c-3.09 0-5.607-2.09-5.607-4.667v-.002c0-.166.011-.33.032-.49l-.002.019a1.228 1.228 0 0 1-.03-.189V5.173A5.203 5.203 0 0 1 6.536 0h19.463c.736 0 1.333.597 1.333 1.333z"/>
    </symbol>
    <symbol id="sort-order" viewBox="0 0 32 32" xmlns="http://www.w3.org/2000/svg">
        <path d="M21.3 29.333a1.33 1.33 0 0 1-1.022-.481l-.002-.002-6.633-8a1.333 1.333 0 0 1 2.052-1.701l.001.002 5.61 6.767 5.667-6.773a1.335 1.335 0 1 1 2.045 1.716l.002-.002-6.687 8a1.332 1.332 0 0 1-1.022.477h-.012.001zM15.693 12.85l5.61-6.767 5.667 6.773a1.335 1.335 0 1 0 2.045-1.716l.002.002-6.683-8a1.332 1.332 0 0 0-1.022-.477H21.3h.001a1.33 1.33 0 0 0-1.022.481l-.002.002-6.633 8a1.333 1.333 0 0 0 2.051 1.702l.002-.003zm-8.11 10.883a1.702 1.702 0 0 0-.518-.576l-.005-.004a2.505 2.505 0 0 0-.799-.356l-.018-.004a4.016 4.016 0 0 0-1.017-.127h-.042.002-.02c-.263 0-.522.022-.773.064l.027-.004a4.377 4.377 0 0 0-.698.169l.031-.009a3.934 3.934 0 0 0-1.098.555l.012-.008.84 1.097c.087-.06.18-.123.287-.183a2.36 2.36 0 0 1 .334-.164l.016-.006c.114-.047.252-.092.394-.126l.019-.004c.136-.03.293-.047.454-.047h.041-.002a1.215 1.215 0 0 1 .826.236l-.003-.002a.827.827 0 0 1 .262.605l-.002.064V24.9v.007c0 .153-.029.3-.083.434l.003-.008a.89.89 0 0 1-.274.332l-.002.002c-.149.107-.324.19-.513.238l-.011.002a3.279 3.279 0 0 1-.758.087l-.069-.001h.003-.547v1.157h.557l.08-.001c.285 0 .564.027.835.078l-.028-.004c.219.04.415.113.592.215l-.009-.005a.838.838 0 0 1 .331.329l.002.004a.92.92 0 0 1 .1.421v.014-.001a1.412 1.412 0 0 1-.09.476l.003-.01a.836.836 0 0 1-.255.369l-.001.001c-.136.11-.3.193-.478.238l-.009.002a2.899 2.899 0 0 1-.712.087l-.061-.001h.003c-.174 0-.345-.012-.513-.036l.02.002a4.272 4.272 0 0 1-.556-.103l.03.006c-.18-.047-.36-.1-.54-.163a3.862 3.862 0 0 1-.538-.234l.021.01v1.4c.299.138.648.253 1.012.328l.031.005a6.27 6.27 0 0 0 1.152.103h.043-.002l.08.001c.46 0 .906-.065 1.327-.186l-.034.008c.371-.108.694-.28.972-.504l-.005.004c.245-.2.438-.452.565-.741l.005-.013c.118-.272.187-.589.187-.923v-.039.002a1.586 1.586 0 0 0-.489-1.226l-.001-.001a2.513 2.513 0 0 0-1.432-.573h-.008v-.03c.253-.06.475-.146.681-.257l-.015.007c.207-.109.384-.243.536-.402l.001-.001c.15-.158.272-.345.356-.552l.004-.012c.084-.209.133-.452.133-.706v-.022-.033c0-.275-.068-.534-.188-.761l.004.009zM8 18.597H4.773v-.073l.953-.957c.28-.277.547-.55.793-.817.234-.245.453-.509.652-.788l.015-.022c.171-.239.322-.513.438-.804l.009-.026c.101-.261.16-.562.16-.878v-.01-.037c0-.319-.063-.623-.176-.901l.006.016a1.945 1.945 0 0 0-.488-.699l-.002-.001a2.232 2.232 0 0 0-.784-.439l-.016-.004A3.094 3.094 0 0 0 5.352 12h-.02.001-.047c-.29 0-.571.034-.841.099l.025-.005a3.388 3.388 0 0 0-.723.262l.019-.009a3.524 3.524 0 0 0-.592.363l.009-.006c-.177.137-.333.277-.51.423l.91 1.073c.242-.223.513-.421.805-.586l.021-.011a1.71 1.71 0 0 1 .823-.21l.049-.001c.229 0 .438.084.599.222l-.001-.001a.788.788 0 0 1 .243.623v-.002.003c0 .238-.042.466-.118.678l.004-.014a2.824 2.824 0 0 1-.339.625l.006-.009a6.097 6.097 0 0 1-.498.625l.005-.005c-.19.213-.403.443-.64.697l-1.863 2v1.167h5.32zM7 1.333H5.6L3 3.386l.827 1.017.927-.737c.057-.043.113-.093.173-.147l.17-.16.15-.147.087-.1v.397c0 .144 0 .293-.017.437s0 .283 0 .417v4.97H7z"/>
    </symbol>
    <symbol id="edit-bulk" viewBox="0 0 32 32" xmlns="http://www.w3.org/2000/svg">
        <path d="M8.333 5.030v2c0 0.736-0.597 1.333-1.333 1.333v0h-2.667c-0.736 0-1.333-0.597-1.333-1.333v0 0-1.317c0.048-1.124 0.97-2.017 2.102-2.017 0.001 0 0.001 0 0.002 0h1.897c0.736 0 1.333 0.597 1.333 1.333v0zM7.903 28.86c0.296-0.177 0.491-0.496 0.491-0.861 0-0.189-0.053-0.366-0.144-0.517l0.002 0.004-2.92-4.94v-11.453c0-0.552-0.448-1-1-1s-1 0.448-1 1v0 11.737c0 0.186 0.054 0.36 0.146 0.507l-0.002-0.004 3.057 5.177c0.177 0.295 0.496 0.49 0.86 0.49v0c0.189-0.001 0.364-0.054 0.514-0.146l-0.004 0.003zM8.060 20.91v-10.91c0-0.368-0.298-0.667-0.667-0.667s-0.667 0.298-0.667 0.667v0 10.91c0 0.368 0.298 0.667 0.667 0.667s0.667-0.298 0.667-0.667v0zM29 5.76v1.27c0 0.736-0.597 1.333-1.333 1.333v0h-2.667c-0.736 0-1.333-0.597-1.333-1.333v0 0-2c0-0.736 0.597-1.333 1.333-1.333v0h1.893c1.126 0 2.047 0.883 2.106 1.995l0 0.005zM25.467 28.51l3.057-5.177c0.090-0.141 0.143-0.313 0.143-0.497 0-0.002 0-0.004-0-0.007v0-11.74c0-0.552-0.448-1-1-1s-1 0.448-1 1v0 11.457l-2.92 4.94c-0.091 0.148-0.144 0.326-0.144 0.517 0 0.359 0.189 0.674 0.473 0.85l0.004 0.002c0.145 0.090 0.32 0.143 0.509 0.143 0.004 0 0.008-0 0.012-0h-0.001c0.362-0.001 0.679-0.194 0.854-0.482l0.003-0.004zM25.27 20.91v-10.91c0-0.368-0.298-0.667-0.667-0.667s-0.667 0.298-0.667 0.667v0 0 10.91c0 0.368 0.298 0.667 0.667 0.667s0.667-0.298 0.667-0.667v0zM21.667 2.563v2.103c0 0.736-0.597 1.333-1.333 1.333v0h-8.667c-0.736 0-1.333-0.597-1.333-1.333v0 0-2.167c0.042-1.39 1.179-2.501 2.576-2.501 0.025 0 0.050 0 0.075 0.001l-0.004-0h6.097c0.002 0 0.005 0 0.008 0 0.735 0 1.4 0.301 1.878 0.786l0 0c0.435 0.44 0.703 1.045 0.703 1.713 0 0 0 0.001 0 0.001v-0 0.067zM17.1 31.417l4.333-6.333c0.145-0.21 0.233-0.47 0.233-0.75v-14.334c0-0.736-0.597-1.333-1.333-1.333s-1.333 0.597-1.333 1.333v0 13.92l-3 4.387-3-4.387v-13.92c0-0.736-0.597-1.333-1.333-1.333s-1.333 0.597-1.333 1.333v0 14.333c0 0.002-0 0.004-0 0.007 0 0.281 0.089 0.541 0.239 0.754l-0.003-0.004 4.333 6.333c0.244 0.346 0.642 0.569 1.093 0.569 0.283 0 0.546-0.088 0.762-0.239l-0.004 0.003c0.132-0.091 0.243-0.201 0.331-0.329l0.003-0.004zM16 23.333c-0.736 0-1.333-0.597-1.333-1.333v0 0-13.333c0-0.736 0.597-1.333 1.333-1.333s1.333 0.597 1.333 1.333v0 13.333c0 0.736-0.597 1.333-1.333 1.333v0z"></path>
    </symbol>
</svg>